<?xml version="1.0"?>
<svg xmlns="http://www.w3.org/2000/svg" xmlns:xlink="http://www.w3.org/1999/xlink" version="1.1" id="Capa_1" x="0px" y="0px" viewBox="0 0 58 58" style="enable-background:new 0 0 58 58;" xml:space="preserve" width="512px" height="512px" class=""><g><g>
	<polygon style="fill:#EB1C24" points="46,4 46,8 39,8 39,4 15,4 15,8 8,8 8,4 0,4 0,15 54,15 54,4  " data-original="#F05565" class="" data-old_color="#F05565"/>
	<polygon style="fill:#E7E7E7" points="8,15 0,15 0,58 54,58 54,15 46,15 39,15 15,15  " data-original="#EFEBDE" class="" data-old_color="#EFEBDE"/>
	<path style="fill:#979797" d="M37,22h-2h-7h-2h-7h-2H8v9v2v7v2v9h9h2h7h2h7h2h9v-9v-2v-7v-2v-9H37z M28,24h7v7h-7V24z M35,40h-7   v-7h7V40z M19,33h7v7h-7V33z M19,24h7v7h-7V24z M10,24h7v7h-7V24z M10,33h7v7h-7V33z M17,49h-7v-7h7V49z M26,49h-7v-7h7V49z M35,49   h-7v-7h7V49z M44,49h-7v-7h7V49z M44,40h-7v-7h7V40z M37,31v-7h7v7H37z" data-original="#D5D0BB" class="" data-old_color="#D5D0BB"/>
	<rect x="8" y="0" style="fill:#052552" width="7" height="8" data-original="#36495E" class="" data-old_color="#36495E"/>
	<rect x="39" y="0" style="fill:#052552" width="7" height="8" data-original="#36495E" class="" data-old_color="#36495E"/>
	<rect x="19" y="33" style="fill:#4A4A4A" width="7" height="7" data-original="#7F6E5D" class="" data-old_color="#7F6E5D"/>
	<g>
		<circle style="fill:#28A745" cx="46" cy="45" r="12" data-original="#71C386" class="active-path" data-old_color="#71C386"/>
		<path style="fill:#FFFFFF;" d="M52,44h-5v-5c0-0.552-0.448-1-1-1s-1,0.448-1,1v5h-5c-0.552,0-1,0.448-1,1s0.448,1,1,1h5v5    c0,0.552,0.448,1,1,1s1-0.448,1-1v-5h5c0.552,0,1-0.448,1-1S52.552,44,52,44z" data-original="#FFFFFF" class=""/>
	</g>
</g></g> </svg>
